<svg width="369" height="514" viewBox="0 0 369 514" fill="none" xmlns="http://www.w3.org/2000/svg">
<rect y="0.160156" width="369" height="513" rx="15" fill="#F8F8F8" fill-opacity="0.6"/>
<path d="M19.704 59.6802C19.704 57.7602 21.24 56.4962 23.544 56.4962C25.608 56.4962 26.968 57.6482 27.144 59.5682H25.976C25.848 58.2722 24.968 57.5362 23.528 57.5362C21.912 57.5362 20.856 58.3682 20.856 59.6642C20.856 60.6722 21.448 61.3122 22.648 61.6162L24.616 62.0962C26.408 62.5282 27.336 63.5522 27.336 65.1042C27.336 67.0882 25.8 68.3522 23.432 68.3522C21.208 68.3522 19.704 67.1842 19.56 65.3122H20.744C20.808 66.5122 21.864 67.2962 23.432 67.2962C25.112 67.2962 26.184 66.4802 26.184 65.1682C26.184 64.1442 25.608 63.4722 24.376 63.1842L22.44 62.7042C20.648 62.2722 19.704 61.2482 19.704 59.6802ZM34.2876 60.4162H35.3916V68.1602H34.4316L34.2876 66.8482C33.8556 67.7442 32.7836 68.3522 31.5676 68.3522C29.7436 68.3522 28.7516 67.1042 28.7516 65.2162V60.4002H29.8716V64.8642C29.8716 66.7042 30.6876 67.3602 31.9196 67.3602C33.4076 67.3602 34.2876 66.3682 34.2876 64.5282V60.4162ZM38.4754 68.1602H37.3714V60.4162H38.3314L38.4594 61.5202C38.8434 60.7042 39.7074 60.2082 40.7954 60.2082C42.0114 60.2082 42.9234 60.8482 43.2914 61.8562C43.6434 60.8482 44.5874 60.2082 45.8354 60.2082C47.5154 60.2082 48.6194 61.2962 48.6194 63.0882V68.1602H47.5474V63.3122C47.5474 61.9842 46.8114 61.2002 45.6274 61.2002C44.3314 61.2002 43.5634 62.1762 43.5634 63.3762V68.1602H42.4754V63.2962C42.4754 61.9842 41.7234 61.2162 40.5554 61.2162C39.2594 61.2162 38.4754 62.1762 38.4754 63.3602V68.1602ZM51.6241 68.1602H50.5201V60.4162H51.4801L51.6081 61.5202C51.9921 60.7042 52.8561 60.2082 53.9441 60.2082C55.1601 60.2082 56.0721 60.8482 56.4401 61.8562C56.7921 60.8482 57.7361 60.2082 58.9841 60.2082C60.6641 60.2082 61.7681 61.2962 61.7681 63.0882V68.1602H60.6961V63.3122C60.6961 61.9842 59.9601 61.2002 58.7761 61.2002C57.4801 61.2002 56.7121 62.1762 56.7121 63.3762V68.1602H55.6241V63.2962C55.6241 61.9842 54.8721 61.2162 53.7041 61.2162C52.4081 61.2162 51.6241 62.1762 51.6241 63.3602V68.1602ZM65.8929 68.3522C64.2449 68.3522 63.2689 67.4242 63.2689 66.0642C63.2689 64.6402 64.3569 63.7442 66.1649 63.6002L68.7249 63.3922V63.1362C68.7249 61.6162 67.8129 61.1362 66.6769 61.1362C65.3329 61.1362 64.5329 61.7442 64.5329 62.7842H63.5249C63.5249 61.2162 64.8049 60.2082 66.7089 60.2082C68.5009 60.2082 69.8129 61.1042 69.8129 63.1522V68.1602H68.8849L68.7409 66.8002C68.2609 67.7762 67.2049 68.3522 65.8929 68.3522ZM66.1489 67.4562C67.7809 67.4562 68.7249 66.3202 68.7249 64.6402V64.2242L66.4369 64.4002C64.9809 64.5282 64.3889 65.1682 64.3889 66.0322C64.3889 66.9762 65.0929 67.4562 66.1489 67.4562ZM75.7563 60.3202V61.3122H75.1483C73.7243 61.3122 72.8123 62.2722 72.8123 63.7442V68.1602H71.7083V60.4162H72.7483L72.8283 61.6162C73.1323 60.7842 73.9483 60.2402 75.0363 60.2402C75.2763 60.2402 75.4843 60.2562 75.7563 60.3202ZM76.3543 71.5362V70.6242H77.2023C77.8743 70.6242 78.5463 70.5762 78.9303 69.5362L79.2663 68.6242L76.1303 60.4162H77.2983L79.7943 67.1682L82.2423 60.4162H83.3783L79.8263 69.9362C79.3783 71.1522 78.6263 71.6482 77.5223 71.6482C77.0583 71.6482 76.7063 71.6162 76.3543 71.5362Z" fill="black"/>
<path d="M28.36 120.58V117.592C23.356 117.232 20.152 114.316 20.044 109.924H24.652C24.688 111.976 26.02 113.272 28.36 113.56V105.892L27.208 105.64C22.672 104.668 20.404 102.148 20.404 98.1882C20.404 93.9762 23.572 90.9522 28.36 90.4482V87.3882H31.132V90.4482C35.668 90.9162 38.476 93.7602 38.62 98.0802H34.156C34.084 96.1362 33.004 94.8762 31.132 94.4802V102.22L32.356 102.508C36.964 103.516 39.052 105.748 39.052 109.564C39.052 113.956 35.956 116.98 31.132 117.52V120.58H28.36ZM28.216 101.572L28.36 101.608V94.4442C26.2 94.8042 24.904 96.1002 24.904 98.0442C24.904 99.9522 25.912 101.068 28.216 101.572ZM31.384 106.54L31.132 106.468V113.488C33.292 113.056 34.588 111.796 34.588 109.96C34.588 108.124 33.544 107.008 31.384 106.54ZM59.4927 117.124L41.2407 117.16V113.704L49.8447 106.432C53.4087 103.408 54.5967 101.68 54.5967 99.1602C54.5967 96.1722 52.9767 94.4802 50.2047 94.4802C47.3247 94.4802 45.5247 96.4962 45.4887 99.8802H40.9167C40.9527 94.1202 44.6247 90.3762 50.2047 90.3762C55.8207 90.3762 59.3127 93.5802 59.3127 98.9082C59.3127 102.58 57.2967 105.352 53.3007 108.772L48.5487 112.84H59.4927V117.124ZM68.6921 115.576C68.6921 118.564 66.5321 120.94 63.6161 121.3V119.536C65.2361 119.248 66.4601 118.276 66.4601 117.016C66.1721 117.16 65.8481 117.232 65.4161 117.232C64.0121 117.232 62.8601 116.188 62.8601 114.748C62.8601 113.02 63.9761 111.868 65.5961 111.868C67.3961 111.868 68.6921 113.344 68.6921 115.576ZM91.9203 112.156H88.7163V117.16H84.3603V112.156H71.0043V108.124L82.9203 90.8442H88.7163V108.124H91.9203V112.156ZM75.9003 108.124H84.3603V95.8122L75.9003 108.124ZM102.014 104.128H98.8103V101.14L105.578 94.9122H94.6343V90.8442H111.338V94.5162L104.93 100.42C108.962 101.212 112.094 104.164 112.094 108.808C112.094 114.208 107.882 117.628 102.554 117.628C97.4063 117.628 93.4103 114.46 93.4103 108.772H97.9463C97.9463 111.796 99.8183 113.524 102.626 113.524C105.506 113.524 107.414 111.652 107.414 108.736C107.414 106.072 105.686 104.128 102.014 104.128ZM113.175 90.8442H132.075V95.0922L122.535 117.16H117.747L127.467 95.0922H113.175V90.8442ZM135.984 115.576C135.984 118.564 133.824 120.94 130.908 121.3V119.536C132.528 119.248 133.752 118.276 133.752 117.016C133.464 117.16 133.14 117.232 132.708 117.232C131.304 117.232 130.152 116.188 130.152 114.748C130.152 113.02 131.268 111.868 132.888 111.868C134.688 111.868 135.984 113.344 135.984 115.576ZM157.513 117.124L139.261 117.16V113.704L147.865 106.432C151.429 103.408 152.617 101.68 152.617 99.1602C152.617 96.1722 150.997 94.4802 148.225 94.4802C145.345 94.4802 143.545 96.4962 143.509 99.8802H138.937C138.973 94.1202 142.645 90.3762 148.225 90.3762C153.841 90.3762 157.333 93.5802 157.333 98.9082C157.333 102.58 155.317 105.352 151.321 108.772L146.569 112.84H157.513V117.124ZM158.23 90.8442H177.13V95.0922L167.59 117.16H162.802L172.522 95.0922H158.23V90.8442ZM184.211 94.9842H178.451V90.8442H188.639V117.16H184.211V94.9842Z" fill="#151E22"/>
<path d="M17 430.16V358.153L53.3253 333.2L126.613 268.323H191.404L252.159 221.981L286.36 207.723L352 127.16V430.16H17Z" fill="url(#paint0_linear_840_32452)"/>
<path d="M17 359.16L53.3253 334.098L126.613 268.938H191.404L252.159 222.395L286.36 208.074L352 127.16" stroke="#05F29A" stroke-width="2"/>
<rect width="330" height="1" transform="translate(17 424.16)" fill="#E0E0E0"/>
<path d="M25.544 457.144L17.736 457.16V455.96L21.464 452.744C23.336 451.128 23.864 450.344 23.864 449.112C23.864 447.656 23.032 446.792 21.64 446.792C20.216 446.792 19.288 447.832 19.256 449.48H17.688C17.736 447 19.304 445.384 21.656 445.384C23.976 445.384 25.464 446.792 25.464 449.016C25.464 450.664 24.648 451.832 22.6 453.608L20.2 455.688H25.544V457.144ZM26.6671 451.384C26.6671 447.8 28.5231 445.368 31.4351 445.368C34.3311 445.368 36.1871 447.8 36.1871 451.384C36.1871 454.984 34.4111 457.368 31.4351 457.368C28.4431 457.368 26.6671 454.984 26.6671 451.384ZM28.2191 451.384C28.2191 454.232 29.4031 455.96 31.4351 455.96C33.4671 455.96 34.6351 454.232 34.6351 451.384C34.6351 448.504 33.4671 446.776 31.4351 446.776C29.4031 446.776 28.2191 448.504 28.2191 451.384ZM45.2009 457.144L37.3929 457.16V455.96L41.1209 452.744C42.9929 451.128 43.5209 450.344 43.5209 449.112C43.5209 447.656 42.6889 446.792 41.2969 446.792C39.8729 446.792 38.9449 447.832 38.9129 449.48H37.3449C37.3929 447 38.9609 445.384 41.3129 445.384C43.6329 445.384 45.1209 446.792 45.1209 449.016C45.1209 450.664 44.3049 451.832 42.2569 453.608L39.8569 455.688H45.2009V457.144ZM54.1465 457.144L46.3385 457.16V455.96L50.0665 452.744C51.9385 451.128 52.4665 450.344 52.4665 449.112C52.4665 447.656 51.6345 446.792 50.2425 446.792C48.8185 446.792 47.8905 447.832 47.8585 449.48H46.2905C46.3385 447 47.9065 445.384 50.2585 445.384C52.5785 445.384 54.0665 446.792 54.0665 449.016C54.0665 450.664 53.2505 451.832 51.2025 453.608L48.8025 455.688H54.1465V457.144Z" fill="#7D7D7D"/>
<path d="M173.544 457.144L165.736 457.16V455.96L169.464 452.744C171.336 451.128 171.864 450.344 171.864 449.112C171.864 447.656 171.032 446.792 169.64 446.792C168.216 446.792 167.288 447.832 167.256 449.48H165.688C165.736 447 167.304 445.384 169.656 445.384C171.976 445.384 173.464 446.792 173.464 449.016C173.464 450.664 172.648 451.832 170.6 453.608L168.2 455.688H173.544V457.144ZM174.667 451.384C174.667 447.8 176.523 445.368 179.435 445.368C182.331 445.368 184.187 447.8 184.187 451.384C184.187 454.984 182.411 457.368 179.435 457.368C176.443 457.368 174.667 454.984 174.667 451.384ZM176.219 451.384C176.219 454.232 177.403 455.96 179.435 455.96C181.467 455.96 182.635 454.232 182.635 451.384C182.635 448.504 181.467 446.776 179.435 446.776C177.403 446.776 176.219 448.504 176.219 451.384ZM193.201 457.144L185.393 457.16V455.96L189.121 452.744C190.993 451.128 191.521 450.344 191.521 449.112C191.521 447.656 190.689 446.792 189.297 446.792C187.873 446.792 186.945 447.832 186.913 449.48H185.345C185.393 447 186.961 445.384 189.313 445.384C191.633 445.384 193.121 446.792 193.121 449.016C193.121 450.664 192.305 451.832 190.257 453.608L187.857 455.688H193.201V457.144ZM197.699 451.176H196.547V450.136L199.827 446.984H194.627V445.592H201.811V446.856L198.643 449.88C200.611 450.12 202.099 451.448 202.099 453.528C202.099 455.864 200.339 457.352 197.987 457.352C195.715 457.352 194.083 455.96 194.083 453.56H195.635C195.635 455.064 196.563 455.944 198.019 455.944C199.523 455.944 200.499 454.984 200.499 453.496C200.499 452.104 199.539 451.176 197.699 451.176Z" fill="#7D7D7D"/>
<path d="M321.544 457.144L313.736 457.16V455.96L317.464 452.744C319.336 451.128 319.864 450.344 319.864 449.112C319.864 447.656 319.032 446.792 317.64 446.792C316.216 446.792 315.288 447.832 315.256 449.48H313.688C313.736 447 315.304 445.384 317.656 445.384C319.976 445.384 321.464 446.792 321.464 449.016C321.464 450.664 320.648 451.832 318.6 453.608L316.2 455.688H321.544V457.144ZM322.667 451.384C322.667 447.8 324.523 445.368 327.435 445.368C330.331 445.368 332.187 447.8 332.187 451.384C332.187 454.984 330.411 457.368 327.435 457.368C324.443 457.368 322.667 454.984 322.667 451.384ZM324.219 451.384C324.219 454.232 325.403 455.96 327.435 455.96C329.467 455.96 330.635 454.232 330.635 451.384C330.635 448.504 329.467 446.776 327.435 446.776C325.403 446.776 324.219 448.504 324.219 451.384ZM341.201 457.144L333.393 457.16V455.96L337.121 452.744C338.993 451.128 339.521 450.344 339.521 449.112C339.521 447.656 338.689 446.792 337.297 446.792C335.873 446.792 334.945 447.832 334.913 449.48H333.345C333.393 447 334.961 445.384 337.313 445.384C339.633 445.384 341.121 446.792 341.121 449.016C341.121 450.664 340.305 451.832 338.257 453.608L335.857 455.688H341.201V457.144ZM350.636 454.824H349.26V457.16H347.756V454.824H341.772V453.432L347.228 445.592H349.26V453.432H350.636V454.824ZM343.468 453.432H347.756V447.256L343.468 453.432Z" fill="#7D7D7D"/>
<defs>
<linearGradient id="paint0_linear_840_32452" x1="255.77" y1="279.017" x2="265.274" y2="387.337" gradientUnits="userSpaceOnUse">
<stop stop-color="#05F29A" stop-opacity="0.2"/>
<stop offset="1" stop-color="#038C59" stop-opacity="0"/>
</linearGradient>
</defs>
</svg>
